# xmcd
#
# Track frame offsets: 
#        150
#        20190
#        38407
#        57164
#        72003
#        85919
#        101787
#        122909
#        143615
#        155099
#        170406
#        182647
#        201010
#        221352
#        241532
#        262130
#        284616
#
# Disc length: 4019 seconds
#
# Revision: 1
# Processed by: cddbd v1.5.2PL0 Copyright (c) Steve Scherf et al.
# Submitted via: ExactAudioCopy v1.3
#
DISCID=f30fb111
DTITLE=Michael (Martin) Murphey - Geronimo's Cadillac
DYEAR=1972
DGENRE=Outlaw Country
TTITLE0=Geronimo's Cadillac
TTITLE1=Natchez Trace
TTITLE2=Calico Silver
TTITLE3=Harbor For My Soul
TTITLE4=Rainbow Man
TTITLE5=Waking Up
TTITLE6=Crack Up In Las Cruces
TTITLE7=Boy From The Country
TTITLE8=What Am I Doin' Hangin' Around
TTITLE9=Michael Angelo's Blues (Song For Hogman)
TTITLE10=Backslider's Wine
TTITLE11=The Lights Of The City
TTITLE12=You Can Only Say So Much (Live 1970) (Bonus Track)
TTITLE13=Blood Brothers (Live 1970) (Bonus Track)
TTITLE14=Kansas City Catfish Man (Live 1970) (Bonus Track)
TTITLE15=Sikston County Wildman (Live 1970) (Bonus Track)
TTITLE16=Fort Worth, I Love You (Live 1970) (Bonus Track)
EXTD=
EXTT0=
EXTT1=
EXTT2=
EXTT3=
EXTT4=
EXTT5=
EXTT6=
EXTT7=
EXTT8=
EXTT9=
EXTT10=
EXTT11=
EXTT12=
EXTT13=
EXTT14=
EXTT15=
EXTT16=
PLAYORDER=
